<?xml version="1.0" standalone="no"?>
<!DOCTYPE svg PUBLIC "-//W3C//DTD SVG 20010904//EN"
 "http://www.w3.org/TR/2001/REC-SVG-20010904/DTD/svg10.dtd">
<svg version="1.0" xmlns="http://www.w3.org/2000/svg"
 width="134.000000pt" height="134.000000pt" viewBox="0 0 134.000000 134.000000"
 preserveAspectRatio="xMidYMid meet">
<metadata>
Created by potrace 1.14, written by Peter Selinger 2001-2017
</metadata>
<g transform="translate(0.000000,134.000000) scale(0.100000,-0.100000)"
fill="#000000" stroke="none">
<path d="M547 1028 c-8 -12 -22 -50 -32 -83 -9 -33 -18 -67 -21 -76 -4 -13 9
-22 54 -37 58 -19 59 -19 71 0 6 10 25 21 41 25 33 6 53 25 57 56 4 23 -12 37
-44 37 -12 0 -34 11 -48 26 -14 14 -30 22 -35 19 -6 -3 -10 -3 -11 2 -5 52
-14 60 -32 31z"/>
<path d="M780 865 c-7 -14 -21 -25 -30 -25 -18 0 -60 -51 -60 -74 0 -20 44
-59 69 -61 11 -1 21 2 21 6 0 3 9 9 20 12 37 10 43 52 18 135 -12 39 -20 40
-38 7z"/>
<path d="M441 703 c-21 -70 -43 -148 -48 -173 l-9 -45 -29 60 c-15 33 -30 54
-33 47 -8 -25 9 -99 28 -120 19 -20 19 -20 -10 -30 -15 -6 -31 -8 -33 -5 -3 3
-12 1 -19 -3 -7 -5 -19 -9 -26 -10 -25 -4 -202 -75 -207 -84 -3 -4 26 2 63 15
81 27 240 61 337 71 139 15 415 9 530 -12 90 -16 175 -37 236 -57 38 -13 69
-21 69 -18 0 15 -218 94 -288 104 -49 8 -49 13 1 35 63 28 78 81 36 123 -24
24 -24 55 0 71 18 11 18 38 0 38 -37 0 -68 -104 -34 -116 29 -11 36 -40 17
-64 l-18 -23 -27 54 c-28 58 -53 89 -105 131 l-32 27 -48 -20 -47 -20 3 -99
c3 -78 1 -100 -10 -101 -76 -5 -88 -4 -89 11 -2 25 -6 63 -12 110 -7 52 -19
160 -20 176 0 6 -25 19 -56 29 -31 10 -61 20 -68 22 -8 3 -26 -40 -52 -124z"/>
</g>
</svg>
